:FULLY-SPECIFIED
:FORCE-ALL-JOINTS-BE-3DOF
:DEGREES
849
root 3.41998 16.5745 27.4234 -9.06059 10.285 -2.33191
lfemur -19.5507 2.92539 -12.2147
ltibia 28.7674 -0 0
lfoot -5.52227 -13.2432 -0.234406
ltoes 22.355 -0 0
rfemur -38.597 3.59872 9.16998
rtibia 47.1376 -0 0
rfoot -0.904777 -4.20836 0.695316
rtoes -10.3056 0 0
lowerback 8.58768 1.01105 -0.908147
upperback 2.72363 1.31173 -0.592575
thorax -1.56932 0.641478 0.176676
lowerneck -6.1044 -2.73474 2.7107
upperneck 5.73535 -4.08063 2.60992
head 2.93898 -1.87119 0.181737
lclavicle 1.41756e-14 -1.31586e-14 6.9181e-31
lhumerus -42.3728 -16.7988 84.318
lradius 54.2491 -0 0
lwrist 21.2946 0 0
lhand 2.84122 4.72094 -0.0302311
lfingers 7.12502 -0 0
lthumb 28.2944 32.4571 -0.0753048
rclavicle 1.41756e-14 -1.31586e-14 6.9181e-31
rhumerus -39.1017 12.3351 -71.1344
rradius 56.6937 -0 0
rwrist -0.153371 0 0
rhand -11.1454 -27.2057 0.0973045
rfingers 7.12502 -0 0
rthumb 14.8786 -56.6248 0.100279
850
root 3.46405 16.5756 27.5611 -9.52565 10.8682 -2.20708
lfemur -19.0132 3.12721 -12.7698
ltibia 29.1891 -0 0
lfoot -5.45096 -14.2805 -0.224003
ltoes 22.4321 -0 0
rfemur -40.195 3.31235 8.78064
rtibia 48.1632 -0 0
rfoot -0.178286 -3.90661 0.664585
rtoes -9.7026 0 0
lowerback 8.91288 0.816266 -1.16876
upperback 2.83586 1.02484 -0.623759
thorax -1.65218 0.49925 0.295392
lowerneck -6.12817 -2.78285 2.68522
upperneck 5.92032 -4.15346 2.65304
head 3.00644 -1.90203 0.195532
lclavicle 1.46534e-14 -1.36143e-14 6.61401e-31
lhumerus -41.9403 -17.168 84.0624
lradius 54.3348 -0 0
lwrist 21.4113 0 0
lhand 3.16853 4.69186 -0.028901
lfingers 7.12502 -0 0
lthumb 28.6077 32.3814 -0.0719917
rclavicle 1.46534e-14 -1.36143e-14 6.61401e-31
rhumerus -39.8024 11.3128 -69.8413
rradius 56.3304 -0 0
rwrist -0.0613393 0 0
rhand -11.3116 -27.39 0.093025
rfingers 7.12502 -0 0
rthumb 14.7185 -56.822 0.0958683
851
root 3.50812 16.5767 27.6988 -9.99036 11.4523 -2.08682
lfemur -18.4776 3.33422 -13.3231
ltibia 29.6107 -0 0
lfoot -5.37984 -15.3179 -0.212311
ltoes 22.5092 -0 0
rfemur -41.7907 3.01527 8.39955
rtibia 49.1887 -0 0
rfoot 0.548029 -3.60527 0.630031
rtoes -9.09965 0 0
lowerback 9.23895 0.622965 -1.43045
upperback 2.94824 0.738006 -0.655502
thorax -1.73534 0.357195 0.414311
lowerneck -6.15192 -2.83097 2.65976
upperneck 6.10525 -4.22642 2.69592
head 3.0739 -1.93287 0.209292
lclavicle 1.51313e-14 -1.40701e-14 6.2719e-31
lhumerus -41.5051 -17.5353 83.8033
lradius 54.4206 -0 0
lwrist 21.528 0 0
lhand 3.49583 4.66278 -0.0274047
lfingers 7.12502 -0 0
lthumb 28.9211 32.3057 -0.0682647
rclavicle 1.51313e-14 -1.40701e-14 6.2719e-31
rhumerus -40.524 10.3064 -68.5401
rradius 55.9672 -0 0
rwrist 0.0306915 0 0
rhand -11.4779 -27.5743 0.0882109
rfingers 7.12502 -0 0
rthumb 14.5584 -57.0192 0.090907
852
root 3.5522 16.5778 27.8366 -10.4548 12.0374 -1.97116
lfemur -17.9439 3.54637 -13.8745
ltibia 30.0324 -0 0
lfoot -5.30895 -16.3552 -0.199334
ltoes 22.5863 -0 0
rfemur -43.3838 2.70771 8.027
rtibia 50.2142 -0 0
rfoot 1.27415 -3.30439 0.59166
rtoes -8.49669 0 0
lowerback 9.56589 0.43116 -1.69324
upperback 3.06077 0.451239 -0.687806
thorax -1.8188 0.215312 0.533435
lowerneck -6.17565 -2.8791 2.63432
upperneck 6.29015 -4.29953 2.73857
head 3.14135 -1.96374 0.223015
lclavicle 1.56092e-14 -1.45258e-14 5.89179e-31
lhumerus -41.0673 -17.9007 83.5408
lradius 54.5063 -0 0
lwrist 21.6448 0 0
lhand 3.82314 4.63372 -0.0257424
lfingers 7.12502 -0 0
lthumb 29.2344 32.2301 -0.0641241
rclavicle 1.56092e-14 -1.45258e-14 5.89179e-31
rhumerus -41.2663 9.31638 -67.23
rradius 55.604 -0 0
rwrist 0.122721 0 0
rhand -11.6441 -27.7585 0.0828622
rfingers 7.12502 -0 0
rthumb 14.3983 -57.2164 0.0853946
853
root 3.59627 16.5789 27.9743 -10.9191 12.6234 -1.8601
lfemur -17.4121 3.76363 -14.4241
ltibia 30.454 -0 0
lfoot -5.23831 -17.3925 -0.185075
ltoes 22.6634 -0 0
rfemur -44.9746 2.38994 7.66324
rtibia 51.2397 -0 0
rfoot 2.00005 -3.00403 0.549481
rtoes -7.89374 0 0
lowerback 9.89369 0.240859 -1.95711
upperback 3.17346 0.164535 -0.720673
thorax -1.90255 0.0736043 0.652764
lowerneck -6.19936 -2.92724 2.6089
upperneck 6.475 -4.37277 2.78099
head 3.20879 -1.99462 0.236702
lclavicle 1.60871e-14 -1.49816e-14 5.47366e-31
lhumerus -40.6268 -18.2642 83.2748
lradius 54.5921 -0 0
lwrist 21.7615 0 0
lhand 4.15045 4.60466 -0.0239141
lfingers 7.12502 -0 0
lthumb 29.5477 32.1545 -0.0595699
rclavicle 1.60871e-14 -1.49816e-14 5.47366e-31
rhumerus -42.0294 8.3434 -65.9105
rradius 55.2408 -0 0
rwrist 0.21475 0 0
rhand -11.8103 -27.9427 0.076979
rfingers 7.12502 -0 0
rthumb 14.2383 -57.4135 0.0793315
